PathFileType	4	(X/Y/Z)	C:\Users\Basilio\Documents\Thesis Gigler\squatting_fais\c3dfiles\039\SJ_pre5\markers_experimental.trc
DataRate	CameraRate	NumFrames	NumMarkers	Units	OrigDataRate	OrigDataStartFrame	OrigNumFrames
200.000000	200.000000	4	61	mm	200.000000	0	1630
Frame#	Time	FHD			LBHD			RBHD			C7			T10			CLAV			LSHO			LUUPA			LMUPA			LDUPA			LLEP			LMEP			LRAD			LUL			LRFIN			RSHO			RUPA1			RMUPA			RDUPA			RLEP			RMEP			RRAD			RUL			RUFIN			LASI			RASI			USACR			LSACR			RSACR			LTHI1			LTHI2			LTHI3			LTHI4			LLFC			LMFC			LTIB1			LTIB2			LTIB3			LTIB4			LLMAL			LMMAL			LHEE			LMT1			LMT2			LMT5			RTHI			RTHI2			RTHI3			RTHI4			RLFC			RMFC			RTIB1			RTIB2			RTIB3			RTIB4			RLMAL			RMMAL			RHEE			RMT1			RMT2			RMT5			
		X1	Y1	Z1	X2	Y2	Z2	X3	Y3	Z3	X4	Y4	Z4	X5	Y5	Z5	X6	Y6	Z6	X7	Y7	Z7	X8	Y8	Z8	X9	Y9	Z9	X10	Y10	Z10	X11	Y11	Z11	X12	Y12	Z12	X13	Y13	Z13	X14	Y14	Z14	X15	Y15	Z15	X16	Y16	Z16	X17	Y17	Z17	X18	Y18	Z18	X19	Y19	Z19	X20	Y20	Z20	X21	Y21	Z21	X22	Y22	Z22	X23	Y23	Z23	X24	Y24	Z24	X25	Y25	Z25	X26	Y26	Z26	X27	Y27	Z27	X28	Y28	Z28	X29	Y29	Z29	X30	Y30	Z30	X31	Y31	Z31	X32	Y32	Z32	X33	Y33	Z33	X34	Y34	Z34	X35	Y35	Z35	X36	Y36	Z36	X37	Y37	Z37	X38	Y38	Z38	X39	Y39	Z39	X40	Y40	Z40	X41	Y41	Z41	X42	Y42	Z42	X43	Y43	Z43	X44	Y44	Z44	X45	Y45	Z45	X46	Y46	Z46	X47	Y47	Z47	X48	Y48	Z48	X49	Y49	Z49	X50	Y50	Z50	X51	Y51	Z51	X52	Y52	Z52	X53	Y53	Z53	X54	Y54	Z54	X55	Y55	Z55	X56	Y56	Z56	X57	Y57	Z57	X58	Y58	Z58	X59	Y59	Z59	X60	Y60	Z60	X61	Y61	Z61	

1	0	-174.1514739990235	1770.01806640625	-815.4114379882815	-318.0207519531251	1702.796997070313	-938.5241699218752	-297.4492492675782	1717.897827148438	-799.3211669921877	-337.6156311035157	1563.9501953125	-876.328063964844	-358.3766784667969	1247.29248046875	-888.4599609375002	-195.4717712402344	1489.0068359375	-877.635192871094	-253.2527770996094	1541.428833007813	-1065.371337890625	-337.8808593750001	1403.999145507813	-1229.277465820313	-299.7521667480469	1370.679931640625	-1232.28125	-338.4242248535157	1349.374755859375	-1273.76708984375	-333.0531921386719	1284.295288085938	-1303.613891601563	-409.3186035156251	1265.46728515625	-1260.911254882813	-316.7265319824219	1042.800903320313	-1137.19091796875	-264.4488830566407	1028.103149414063	-1191.418334960938	-265.5254821777344	1050.181518554688	-1087.252319335938	-230.9252929687501	1529.489501953125	-683.4172363281251	-349.5712890625001	1409.523559570313	-534.7635498046876	-319.1450195312501	1371.203247070313	-522.9228515625001	-368.2741088867188	1357.637939453125	-491.1697082519532	-365.3182067871094	1292.305297851563	-461.7730407714845	-440.3733520507814	1280.292114257813	-509.3697509765626	-316.7888793945313	1090.153198242188	-674.5515747070314	-302.4170837402344	1042.736450195313	-616.5220336914064	-258.9300842285157	1068.4208984375	-717.2191162109376	-199.5691986083985	1052.590698242188	-1005.176574707031	-201.3809661865235	1038.250366210938	-783.969421386719	-377.6810913085938	1121.571411132813	-888.7850341796877	-384.5245666503907	1091.65625	-918.5864257812502	-389.5786437988282	1090.401977539063	-861.009216308594	-262.5465087890626	781.4419555664065	-1095.542846679688	-224.8079071044922	706.2651367187501	-1103.50830078125	-176.7016296386719	712.4714355468751	-1097.609375	-246.7104644775391	651.1431884765626	-1090.71240234375	-238.2034454345704	530.1121215820314	-1094.53125	-197.7584991455079	500.2308044433595	-984.1133422851565	-190.1251831054688	378.3268432617188	-1082.363403320313	-266.2315979003907	347.3254699707032	-1119.100952148438	-224.8381652832032	338.3101501464844	-1106.232543945313	-230.8143615722657	257.5094604492188	-1069.521240234375	-316.4571533203126	99.5038986206055	-1101.7353515625	-290.4856872558594	94.36852264404298	-1018.034851074219	-381.7221984863282	41.21964645385743	-1059.3408203125	-146.5788879394532	56.09760665893556	-1072.009155273438	-159.1517333984375	54.90743637084962	-1114.013793945313	-207.3658599853516	30.86607551574708	-1160.451538085938	-250.8021545410157	782.4504394531252	-690.9107666015626	-205.4470520019532	735.0291137695314	-677.4105224609376	-173.2108306884766	742.6168823242189	-680.5712890625001	-220.2987518310547	650.3707885742189	-681.4941406250001	-233.733627319336	511.3450317382814	-695.8820800781251	-179.0867614746094	492.1279602050782	-798.166687011719	-214.0305633544922	300.4717712402344	-689.6489868164064	-305.9917602539063	243.8896179199219	-690.3983764648439	-261.1258850097657	231.7267456054688	-682.7719726562501	-243.2529602050782	178.8271484375	-706.8269042968751	-317.2962036132813	91.63076019287111	-688.8391723632814	-277.8513488769532	101.2215805053711	-768.9945068359377	-378.6774291992188	41.18707275390626	-740.8040161132814	-145.3058166503907	52.09330368041994	-715.9804687500001	-156.056884765625	57.24293899536134	-671.2221069335939	-213.1694030761719	29.37702941894532	-625.1518554687501	
2	0.005	-174.4854278564453	1769.9501953125	-815.2648925781252	-318.2001647949219	1702.8828125	-938.4953613281252	-297.7047424316407	1717.973999023438	-799.2893066406252	-337.9706420898438	1563.9775390625	-876.3521728515627	-358.4478759765626	1247.30126953125	-888.5053710937502	-195.6544647216797	1489.115478515625	-877.6176757812502	-253.3008880615235	1541.6826171875	-1065.6083984375	-338.0499267578126	1404.098388671875	-1229.25439453125	-299.8316955566407	1370.775390625	-1232.276489257813	-338.5429382324219	1349.450073242188	-1273.746459960938	-333.1286315917969	1284.403686523438	-1303.5869140625	-409.4349670410157	1265.577880859375	-1260.922973632813	-316.8629150390626	1042.796997070313	-1137.274536132813	-264.5517578125001	1028.151733398438	-1191.492431640625	-265.6361083984376	1050.182250976563	-1087.34912109375	-231.228256225586	1529.557983398438	-683.4199829101564	-349.8556213378907	1409.517822265625	-534.8510742187501	-319.4703674316407	1371.216430664063	-522.9085083007814	-368.5326232910157	1357.59375	-491.2183227539064	-365.5370788574219	1292.253295898438	-461.8329162597657	-440.6277465820314	1280.251220703125	-509.4326171875001	-316.8468017578126	1090.133422851563	-674.5894165039064	-302.4476623535157	1042.763549804688	-616.5583496093751	-259.0050659179688	1068.428955078125	-717.2642822265626	-199.6571197509766	1052.636108398438	-1005.240173339844	-201.4302825927735	1038.312255859375	-784.0508422851565	-377.7492370605469	1121.577758789063	-888.8359985351565	-384.6053161621095	1091.646728515625	-918.6272583007815	-389.6362609863282	1090.40869140625	-861.080017089844	-262.7499694824219	781.470886230469	-1095.582641601563	-225.0082702636719	706.2628173828126	-1103.571411132813	-176.9427185058594	712.4981689453126	-1097.657470703125	-246.8796997070313	651.1652221679689	-1090.722534179688	-238.3174438476563	530.1524658203126	-1094.532104492188	-197.9265594482422	500.2749938964845	-984.1336059570315	-190.2363739013672	378.3323974609376	-1082.367553710938	-266.3410644531251	347.3339233398438	-1119.130493164063	-224.8809967041016	338.3110961914063	-1106.226928710938	-230.8831481933594	257.5249023437501	-1069.552734375	-316.4487915039063	99.48570251464847	-1101.769165039063	-290.4856872558594	94.36852264404298	-1018.034851074219	-381.7283020019532	41.19969177246094	-1059.334228515625	-146.6010894775391	56.09511184692384	-1072.05078125	-159.1517028808594	54.90743637084962	-1114.013916015625	-207.3852996826172	30.88749313354493	-1160.455932617188	-250.8482055664063	782.4981689453127	-690.9971313476564	-205.4603729248047	735.0317382812501	-677.5765380859376	-173.2356872558594	742.6484375000001	-680.7112426757814	-220.3683319091797	650.3828125000001	-681.6114501953126	-233.8642883300782	511.3517150878907	-696.0059814453126	-179.27294921875	492.1356811523439	-798.328063964844	-214.110092163086	300.5185546875001	-689.7188110351564	-306.0696716308594	243.8582153320313	-690.4418334960939	-261.1475524902344	231.753158569336	-682.8798828125001	-243.2536926269532	178.8155975341797	-706.9184570312501	-317.2799987792969	91.6007537841797	-688.8768310546876	-277.8686218261719	101.235954284668	-768.996765136719	-378.7034301757813	41.1742057800293	-740.8388061523439	-145.3246459960938	52.10427856445314	-715.9807739257814	-156.052001953125	57.26587677001955	-671.2537841796876	-213.1548004150391	29.40283203125001	-625.1580200195314	
3	0.01	-174.739974975586	1770.000366210938	-815.117614746094	-318.4073486328126	1702.948120117188	-938.4240722656252	-297.9880676269532	1718.029907226563	-799.2149658203127	-338.1993408203126	1563.988037109375	-876.373229980469	-358.6597900390626	1247.346923828125	-888.5323486328127	-195.8563537597657	1489.207275390625	-877.6656494140627	-253.5617065429688	1541.773803710938	-1065.622802734375	-338.2144775390626	1404.197387695313	-1229.296508789063	-299.9766845703126	1370.882202148438	-1232.3232421875	-338.7010192871094	1349.556396484375	-1273.751831054688	-333.2133178710938	1284.52783203125	-1303.649291992188	-409.6170349121095	1265.642944335938	-1260.995971679688	-317.0024414062501	1042.883178710938	-1137.340209960938	-264.6616210937501	1028.236206054688	-1191.551635742188	-265.7280578613282	1050.22900390625	-1087.409790039063	-231.4751739501954	1529.5966796875	-683.4277954101564	-350.1117248535157	1409.499389648438	-534.9420776367189	-319.7283935546876	1371.2421875	-522.9404907226564	-368.7845153808594	1357.588623046875	-491.2627563476564	-365.7348327636719	1292.249389648438	-461.912322998047	-440.9727172851564	1280.739624023438	-509.7279357910157	-316.8827209472657	1090.121337890625	-674.6447753906251	-302.4724426269532	1042.730346679688	-616.6398315429689	-259.0143737792969	1068.479736328125	-717.2917480468751	-199.8036193847657	1052.696044921875	-1005.335144042969	-201.4358062744141	1038.417114257813	-784.1475219726565	-377.8702087402344	1121.595092773438	-888.841247558594	-384.7174072265626	1091.675415039063	-918.6320800781252	-389.7204589843751	1090.4345703125	-861.0410766601565	-263.0070495605469	781.4988403320315	-1095.596801757813	-225.2319946289063	706.2980957031251	-1103.604614257813	-177.0965881347657	712.5676269531251	-1097.734008789063	-247.0830841064454	651.1972045898439	-1090.736450195313	-237.489242553711	529.6671752929689	-1094.527465820313	-198.0981445312501	500.3182373046876	-984.1173095703127	-190.7433776855469	378.7850036621094	-1082.452880859375	-266.3775634765626	347.3532409667969	-1119.112670898438	-224.9921112060547	338.3729858398438	-1106.237548828125	-230.9640350341797	257.5411376953126	-1069.504638671875	-316.4842529296876	99.51033020019534	-1101.751220703125	-290.5247497558594	94.39974975585939	-1018.058349609375	-381.7221984863282	41.21964263916016	-1059.3408203125	-146.7177886962891	56.63979721069337	-1071.712524414063	-159.1605987548828	54.91306686401369	-1114.037719726563	-207.3639068603516	30.88121604919434	-1160.477294921875	-250.8351745605469	782.5789794921877	-691.0714111328126	-205.4880523681641	735.0947265625001	-677.7329711914064	-173.2662506103516	742.6455688476564	-680.8820190429689	-220.1097106933594	650.8988647460939	-681.5723266601564	-233.9364013671876	511.3704528808595	-696.1140747070314	-179.4946441650391	492.1670837402345	-798.5017700195315	-214.2154998779297	300.5630493164063	-689.8580932617189	-306.0899047851563	243.8677825927735	-690.4738769531251	-261.2059936523438	231.7572937011719	-682.9403076171876	-243.2725830078126	178.8416595458985	-706.9743041992189	-317.2810974121094	91.62158203125001	-688.8809204101564	-277.8143920898438	101.2062759399414	-769.001403808594	-378.6996154785157	41.1772804260254	-740.8161621093751	-145.324935913086	52.11833572387697	-716.0408935546876	-156.0437927246094	57.28924560546876	-671.2858276367189	-213.164291381836	29.41577720642091	-625.1977539062501	
4	0.015	-174.947006225586	1770.033447265625	-815.0247192382815	-318.1075439453126	1703.016357421875	-938.3032226562502	-298.3453063964844	1718.112182617188	-799.1063232421877	-338.4725952148438	1564.025146484375	-876.346374511719	-358.8410339355469	1247.366577148438	-888.5108642578127	-196.0863342285157	1489.310302734375	-877.639099121094	-253.8082122802735	1541.89013671875	-1065.598754882813	-338.3814697265626	1404.301025390625	-1229.293823242188	-300.0892944335938	1370.993530273438	-1232.351684570313	-338.8385009765626	1349.62841796875	-1273.736572265625	-333.3236389160157	1284.617919921875	-1303.702270507813	-409.6998291015626	1265.769653320313	-1261.029907226563	-317.0946655273438	1042.910766601563	-1137.414428710938	-264.7946777343751	1028.320556640625	-1191.624267578125	-265.9185485839844	1050.300048828125	-1087.4560546875	-231.7266693115235	1529.712158203125	-683.4067382812501	-350.3974304199219	1409.47412109375	-534.9942016601564	-319.9787902832032	1371.247314453125	-522.9940795898439	-369.0464477539063	1357.548217773438	-491.3081359863282	-365.8809204101563	1292.152587890625	-461.9920959472657	-441.0623474121095	1280.09716796875	-509.5951232910157	-316.9177551269532	1090.1591796875	-674.6979980468751	-302.4876098632813	1042.759033203125	-616.7009887695314	-259.0675048828126	1068.5107421875	-717.3506469726564	-199.9955291748047	1052.73291015625	-1005.420837402344	-201.4565582275391	1038.543334960938	-784.2016601562502	-377.9499816894532	1121.602416992188	-888.8131103515627	-384.8566284179689	1091.695068359375	-918.605651855469	-389.8378295898439	1090.475463867188	-861.0792236328127	-263.0709838867188	782.0095214843752	-1095.568481445313	-225.4151000976563	706.3738403320314	-1103.640625	-177.2907257080078	712.5823974609376	-1097.747680664063	-247.3049011230469	651.2464599609376	-1090.7919921875	-238.627670288086	530.1912841796876	-1094.60888671875	-198.2821655273438	500.3777465820314	-984.1419677734377	-190.8438720703125	378.8017883300782	-1082.509887695313	-266.4814758300782	347.3457946777344	-1119.11279296875	-225.1536712646485	338.4223632812501	-1106.23388671875	-231.0999298095704	256.8304748535157	-1069.938232421875	-316.5074768066407	99.53110504150393	-1101.750366210938	-290.5245971679688	94.36846160888673	-1018.051635742188	-381.7283020019532	41.19969177246094	-1059.334106445313	-146.588134765625	56.11960601806642	-1072.032592773438	-159.1517028808594	54.90743637084962	-1114.013916015625	-207.364974975586	30.86279869079591	-1160.454956054688	-250.8689575195313	782.6634521484377	-691.1572265625001	-205.5026855468751	735.1367187500001	-677.8976440429689	-173.2859039306641	742.6819458007814	-681.1026611328126	-220.1356353759766	650.9673461914064	-681.6411132812501	-234.0388336181641	511.4286499023439	-696.2660522460939	-179.6736602783203	492.179656982422	-798.707214355469	-214.2825622558594	300.6027832031251	-689.9992675781251	-306.1368713378907	243.859359741211	-690.5869140625001	-261.2142333984376	231.7750549316407	-682.9918212890626	-243.3220520019532	178.8302917480469	-707.0134887695314	-317.3374633789063	91.60543060302736	-688.8751220703126	-277.8470458984376	101.1976623535157	-769.0095214843752	-378.7326660156251	41.18617630004884	-740.8026733398439	-145.3180389404297	52.12818908691408	-716.0184936523439	-156.0284271240235	57.31153106689455	-671.3366699218751	-213.1587982177735	29.41286277770997	-625.2163696289064	
